<svg xmlns="http://www.w3.org/2000/svg" viewBox="0 0 512 512">
  <defs>
    <linearGradient id="bg" x1="0" y1="0" x2="1" y2="1">
      <stop offset="0%" stop-color="#7c6cf7"/>
      <stop offset="100%" stop-color="#5a4bd6"/>
    </linearGradient>
  </defs>
  <!-- Background -->
  <rect width="512" height="512" rx="96" fill="url(#bg)"/>
  <!-- Book spine shadow -->
  <rect x="244" y="120" width="24" height="272" rx="4" fill="#4a3cb8" opacity="0.5"/>
  <!-- Left page -->
  <path d="M248 136 C248 136 200 128 152 136 C144 137 136 144 136 152 L136 360 C136 368 144 376 152 374 C200 366 248 374 248 374 Z" fill="#ffffff" opacity="0.95"/>
  <!-- Right page -->
  <path d="M264 136 C264 136 312 128 360 136 C368 137 376 144 376 152 L376 360 C376 368 368 376 360 374 C312 366 264 374 264 374 Z" fill="#ffffff" opacity="0.95"/>
  <!-- Left page lines -->
  <line x1="164" y1="172" x2="232" y2="168" stroke="#6c5ce7" stroke-width="5" stroke-linecap="round" opacity="0.4"/>
  <line x1="164" y1="196" x2="232" y2="192" stroke="#6c5ce7" stroke-width="5" stroke-linecap="round" opacity="0.3"/>
  <line x1="164" y1="220" x2="232" y2="216" stroke="#6c5ce7" stroke-width="5" stroke-linecap="round" opacity="0.4"/>
  <line x1="164" y1="244" x2="216" y2="240" stroke="#6c5ce7" stroke-width="5" stroke-linecap="round" opacity="0.3"/>
  <!-- Right page manga panel lines -->
  <rect x="280" y="164" width="80" height="60" rx="3" fill="none" stroke="#6c5ce7" stroke-width="4" opacity="0.35"/>
  <rect x="280" y="232" width="36" height="48" rx="3" fill="none" stroke="#6c5ce7" stroke-width="4" opacity="0.35"/>
  <rect x="324" y="232" width="36" height="48" rx="3" fill="none" stroke="#6c5ce7" stroke-width="4" opacity="0.35"/>
  <rect x="280" y="288" width="80" height="52" rx="3" fill="none" stroke="#6c5ce7" stroke-width="4" opacity="0.35"/>
  <!-- Book spine center line -->
  <line x1="256" y1="128" x2="256" y2="380" stroke="#e0dcfc" stroke-width="3" opacity="0.4"/>
</svg>
